# xmcd
#
# Track frame offsets: 
#        150
#        20382
#        53310
#        74105
#        97225
#        115100
#        152740
#        173687
#        200710
#        233500
#        250410
#        268372
#
# Disc length: 3831 seconds
#
# Revision: 3
# Processed by: cddbd v1.5.2PL0 Copyright (c) Steve Scherf et al.
# Submitted via: ExactAudioCopy v1.0b3
#
DISCID=a70ef50c
DTITLE=Various Artist - 1993 Portland Waterfront Blues Festival
DYEAR=1993
DGENRE=Blues
TTITLE0=The Lloyd Jones Struggle - Toughen Up
TTITLE1=Margo Tufo - Someone Else Is Steppin' In
TTITLE2=Kelly Joe Phelps - Crossroads
TTITLE3=Linda Hornbuckle and The No DeLay Band - I Just Want to Make Lov
TTITLE3=e to You
TTITLE4=Pin and The Hornits - Streamline
TTITLE5=Too Slim and The Taildraggers - How Many More Years
TTITLE6=The Jim Mesi Band - That Train Don't Stop Here Anymore
TTITLE7=The Channel Cats - Strange Land
TTITLE8=Backporch Blues - Mean Old Man
TTITLE9=Mel Solomon - Woke Up This Morning
TTITLE10=The Switchmasters - Back to Baker City
TTITLE11=Duffy Bishop - Boom, Boom
EXTD=
EXTT0=Lloyd Jones Struggle
EXTT1=Margo Tufo
EXTT2=Kelly Joe Phelps
EXTT3=Linda Hornbuckle and No Delay
EXTT4=Pin and The Hornits
EXTT5=Too Slim and The Taildraggers
EXTT6=The Jim Mesi Band
EXTT7=The Channel Cats
EXTT8=Backporch Blues
EXTT9=Mel Solomon
EXTT10=The Switchmasters
EXTT11=Duffy Bishop
PLAYORDER=
